<svg width="37" height="37" viewBox="0 0 37 37" fill="none" xmlns="http://www.w3.org/2000/svg">
<path d="M19.4697 23.5303C19.7626 23.8232 20.2374 23.8232 20.5303 23.5303C20.8232 23.2374 20.8232 22.7626 20.5303 22.4697L19.4697 23.5303ZM15 18L14.4697 17.4697C14.1768 17.7626 14.1768 18.2374 14.4697 18.5303L15 18ZM20.5303 13.5303C20.8232 13.2374 20.8232 12.7626 20.5303 12.4697C20.2374 12.1768 19.7626 12.1768 19.4697 12.4697L20.5303 13.5303ZM1.75 9C1.75 4.99594 4.99594 1.75 9 1.75V0.25C4.16751 0.25 0.25 4.16751 0.25 9H1.75ZM9 1.75H28V0.25H9V1.75ZM28 1.75C32.0041 1.75 35.25 4.99594 35.25 9H36.75C36.75 4.16751 32.8325 0.25 28 0.25V1.75ZM35.25 9V28H36.75V9H35.25ZM35.25 28C35.25 32.0041 32.0041 35.25 28 35.25V36.75C32.8325 36.75 36.75 32.8325 36.75 28H35.25ZM28 35.25H9V36.75H28V35.25ZM9 35.25C4.99594 35.25 1.75 32.0041 1.75 28H0.25C0.25 32.8325 4.16751 36.75 9 36.75V35.25ZM1.75 28V9H0.25V28H1.75ZM20.5303 22.4697L15.5303 17.4697L14.4697 18.5303L19.4697 23.5303L20.5303 22.4697ZM15.5303 18.5303L20.5303 13.5303L19.4697 12.4697L14.4697 17.4697L15.5303 18.5303Z" fill="#C8C8C8"/>
</svg>
