<svg width="30" height="30" viewBox="0 0 30 30" fill="none" xmlns="http://www.w3.org/2000/svg">
<mask id="path-1-inside-1_87537_20" fill="white">
<path fill-rule="evenodd" clip-rule="evenodd" d="M7 1H23C26.3137 1 29 3.68629 29 7V23C29 26.3137 26.3137 29 23 29H7C3.68629 29 1 26.3137 1 23V7C1 3.68629 3.68629 1 7 1ZM0 7C0 3.13401 3.13401 0 7 0H23C26.866 0 30 3.13401 30 7V23C30 26.866 26.866 30 23 30H7C3.13401 30 0 26.866 0 23V7ZM14.8396 10.1127C16.3633 8.62911 18.8336 8.62912 20.3573 10.1127C21.8809 11.5962 21.8809 14.0015 20.3573 15.485L20.2281 15.6108L20.2453 15.6276L14.7277 21L9.14274 15.5621C7.61909 14.0786 7.61909 11.6733 9.14274 10.1897C10.6664 8.70619 13.1367 8.70619 14.6604 10.1897L14.7104 10.2385L14.8396 10.1127Z"/>
</mask>
<path fill-rule="evenodd" clip-rule="evenodd" d="M7 1H23C26.3137 1 29 3.68629 29 7V23C29 26.3137 26.3137 29 23 29H7C3.68629 29 1 26.3137 1 23V7C1 3.68629 3.68629 1 7 1ZM0 7C0 3.13401 3.13401 0 7 0H23C26.866 0 30 3.13401 30 7V23C30 26.866 26.866 30 23 30H7C3.13401 30 0 26.866 0 23V7ZM14.8396 10.1127C16.3633 8.62911 18.8336 8.62912 20.3573 10.1127C21.8809 11.5962 21.8809 14.0015 20.3573 15.485L20.2281 15.6108L20.2453 15.6276L14.7277 21L9.14274 15.5621C7.61909 14.0786 7.61909 11.6733 9.14274 10.1897C10.6664 8.70619 13.1367 8.70619 14.6604 10.1897L14.7104 10.2385L14.8396 10.1127Z" fill="white"/>
<path d="M20.3573 10.1127L21.0549 9.39618L21.0549 9.39618L20.3573 10.1127ZM14.8396 10.1127L14.142 9.39618L14.142 9.39618L14.8396 10.1127ZM20.3573 15.485L21.0549 16.2015L21.0549 16.2015L20.3573 15.485ZM20.2281 15.6108L19.5304 14.8944L18.7946 15.6108L19.5304 16.3273L20.2281 15.6108ZM20.2453 15.6276L20.9429 16.3441L21.6788 15.6276L20.9429 14.9111L20.2453 15.6276ZM14.7277 21L14.03 21.7165L14.7277 22.3957L15.4253 21.7165L14.7277 21ZM9.14274 15.5621L9.84035 14.8456L9.84035 14.8456L9.14274 15.5621ZM9.14274 10.1897L8.44513 9.47325L8.44513 9.47325L9.14274 10.1897ZM14.6604 10.1897L13.9628 10.9062L13.9628 10.9062L14.6604 10.1897ZM14.7104 10.2385L14.0128 10.9549L14.7104 11.6342L15.408 10.9549L14.7104 10.2385ZM23 0H7V2H23V0ZM30 7C30 3.13401 26.866 0 23 0V2C25.7614 2 28 4.23858 28 7H30ZM30 23V7H28V23H30ZM23 30C26.866 30 30 26.866 30 23H28C28 25.7614 25.7614 28 23 28V30ZM7 30H23V28H7V30ZM0 23C0 26.866 3.13401 30 7 30V28C4.23858 28 2 25.7614 2 23H0ZM0 7V23H2V7H0ZM7 0C3.13401 0 0 3.13401 0 7H2C2 4.23858 4.23858 2 7 2V0ZM7 -1C2.58172 -1 -1 2.58172 -1 7H1C1 3.68629 3.68629 1 7 1V-1ZM23 -1H7V1H23V-1ZM31 7C31 2.58172 27.4183 -1 23 -1V1C26.3137 1 29 3.68629 29 7H31ZM31 23V7H29V23H31ZM23 31C27.4183 31 31 27.4183 31 23H29C29 26.3137 26.3137 29 23 29V31ZM7 31H23V29H7V31ZM-1 23C-1 27.4183 2.58172 31 7 31V29C3.68629 29 1 26.3137 1 23H-1ZM-1 7V23H1V7H-1ZM21.0549 9.39618C19.143 7.53461 16.0539 7.53461 14.142 9.39618L15.5372 10.8291C16.6726 9.72362 18.5243 9.72362 19.6596 10.8291L21.0549 9.39618ZM21.0549 16.2015C22.9817 14.3254 22.9817 11.2723 21.0549 9.39618L19.6596 10.8291C20.7801 11.9201 20.7801 13.6776 19.6596 14.7686L21.0549 16.2015ZM20.9257 16.3273L21.0549 16.2015L19.6596 14.7686L19.5304 14.8944L20.9257 16.3273ZM20.9429 14.9111L20.9257 14.8944L19.5304 16.3273L19.5477 16.3441L20.9429 14.9111ZM15.4253 21.7165L20.9429 16.3441L19.5477 14.9111L14.03 20.2835L15.4253 21.7165ZM8.44513 16.2786L14.03 21.7165L15.4253 20.2835L9.84035 14.8456L8.44513 16.2786ZM8.44513 9.47325C6.51829 11.3494 6.51829 14.4025 8.44513 16.2786L9.84035 14.8456C8.71988 13.7547 8.71988 11.9972 9.84035 10.9062L8.44513 9.47325ZM15.358 9.47325C13.4461 7.61168 10.357 7.61168 8.44513 9.47325L9.84035 10.9062C10.9757 9.8007 12.8274 9.8007 13.9628 10.9062L15.358 9.47325ZM15.408 9.52198L15.358 9.47325L13.9628 10.9062L14.0128 10.9549L15.408 9.52198ZM14.142 9.39618L14.0128 9.52199L15.408 10.9549L15.5372 10.8291L14.142 9.39618Z" fill="#DDDDDD" mask="url(#path-1-inside-1_87537_20)"/>
</svg>
