<svg width="14" height="12" viewBox="0 0 14 12" fill="none" xmlns="http://www.w3.org/2000/svg">
<path d="M7.38993 11.6864C7.45087 11.6476 8.88541 10.7313 10.3371 9.40247M7.38993 11.6864L12.2842 1.17532C12.6619 1.54185 12.9639 1.97794 13.1734 2.45917C13.3906 2.95999 13.5016 3.49183 13.5 4.03917C13.5 4.55549 13.3937 5.09353 13.1828 5.64087C13.0078 6.09828 12.753 6.57274 12.4296 7.05186C11.917 7.81007 11.2122 8.60084 10.3371 9.40247M7.38993 11.6864L7.01957 11.9221M7.38993 11.6864L7.01957 11.9221M10.3371 9.40247L9.9994 9.03378M10.3371 9.40247L9.9994 9.03378M12.7149 2.65852C12.5315 2.2373 12.267 1.85535 11.936 1.53413L11.9356 1.53375C11.6036 1.21077 11.2118 0.95391 10.7817 0.777314L10.781 0.77705C10.3348 0.593112 9.85601 0.498912 9.37254 0.500016L9.3714 0.500019C8.69167 0.500018 8.02965 0.68467 7.45507 1.03247L7.45505 1.03248C7.31759 1.11568 7.18739 1.20682 7.06428 1.3059L6.75079 1.5582L6.4373 1.3059C6.31419 1.20682 6.18399 1.11568 6.04653 1.03248L6.04651 1.03247C5.47193 0.68467 4.80991 0.500018 4.13018 0.500018C3.63985 0.500018 3.16709 0.592995 2.72052 0.777052L2.71999 0.777274C2.28818 0.954657 1.89975 1.20936 1.56581 1.53389L1.56512 1.53456L1.56512 1.53456C1.23395 1.85517 0.96961 2.23694 0.786893 2.65812L12.7149 2.65852ZM12.7149 2.65852C12.9048 3.09669 13.0014 3.56022 13 4.03774V4.03917C13 4.48648 12.908 4.96362 12.7162 5.46105L12.7158 5.46219C12.557 5.87721 12.3218 6.31781 12.0153 6.77183C11.5302 7.48941 10.854 8.25094 9.99954 9.03365L12.7149 2.65852ZM9.9994 9.03378C8.57909 10.3338 7.17266 11.232 7.12158 11.2645L7.12149 11.2646L6.7521 11.4996L6.7521 11.4996L6.75173 11.4998L6.75001 11.5L6.74829 11.4998L6.74792 11.4996L6.74791 11.4996L6.37853 11.2646L6.37858 11.2645L6.37071 11.2597C6.37088 11.2598 6.37074 11.2597 6.37026 11.2594C6.36862 11.2584 6.36295 11.2548 6.35221 11.248C6.33938 11.2398 6.32139 11.2282 6.29854 11.2133C6.25287 11.1835 6.18837 11.1409 6.1077 11.0864C5.94634 10.9774 5.72085 10.8212 5.45237 10.625C4.91464 10.2322 4.20839 9.68232 3.50067 9.03383L3.50062 9.03378M9.9994 9.03378H3.50062M3.50062 9.03378C2.64621 8.25111 1.96995 7.48962 1.48485 6.77208L3.50062 9.03378ZM7.01957 11.9221C6.85549 12.026 6.64453 12.026 6.48045 11.9221H7.01957ZM0.500016 4.03917C0.500016 3.56055 0.596802 3.09642 0.786877 2.65816L1.48483 6.77205C1.17884 6.31882 0.944601 5.87761 0.783688 5.4608C0.592028 4.96345 0.500016 4.48641 0.500016 4.03917Z" stroke="#D3D3D3"/>
</svg>
